<svg>
  <symbol id="htmlacademy-footer" viewBox="0 0 27 34" xmlns="http://www.w3.org/2000/svg">
    <path d="M13.64.02L13.5 0 0 1.4v24.61L13.5 34 27 26.01V1.41L13.64 0zm11.6 25L13.5 31.96 1.77 25.02v-10.1l11.68 6.93.02 1.25-8.02-4.75v1.23l8.04 4.8.02 1.3-8.05-4.76v1.22l8.04 4.81 8.12-4.83V16.9l3.62-2.15v10.26zm0-11.57L22 15.33l-1.48.88-7.06-4.19-.01 1.23 6.04 3.57-.06.03-.13.07-.86.5-4.98-2.95-.01 1.22 3.93 2.33-.93.61-.02.01-2.97-1.74-.01 1.23 1.94 1.13-1.98 1.19L1.8 13.58l11.63-6.96 11.8 6.83zm0-1.22L13.43 5.3 1.77 12.22V2.99L13.5 1.76 25.23 3v9.24z"/>
  </symbol>
  <symbol id="vk-icon" viewBox="0 0 30 22" xmlns="http://www.w3.org/2000/svg">
    <path d="M.1 5.49c0-.86.54-1.32 1.65-1.38L6 4.13c.29 0 .48.13.57.38.44 1.26.93 2.34 1.47 3.26.54.9 1.25 1.96 2.13 3.15.07.15.2.23.37.23.13 0 .24-.06.31-.18l.09-.27.03-4.36c0-.3-.08-.5-.25-.6-.16-.1-.46-.17-.9-.22-.34-.06-.5-.24-.5-.56 0-.07 0-.12.02-.15.4-1.09 1.54-1.63 3.43-1.63l1.6-.03c.72 0 1.32.16 1.8.48.47.32.7.82.7 1.5v5.72a.7.7 0 00.38.12c.28 0 .53-.15.74-.45 2.1-2.58 3.23-4.3 3.4-5.18l.05-.13c.14-.25.36-.47.66-.65.3-.19.57-.31.8-.38a.63.63 0 01.26-.05h4.42l.29.03a1 1 0 01.88.47c.08.1.13.21.16.33a2.26 2.26 0 01.07.56v.17a5.9 5.9 0 01-1.01 2.2c-.55.78-1.24 1.62-2.07 2.53-.84.9-1.36 1.5-1.57 1.78-.17.2-.26.39-.26.56 0 .13.08.28.23.45l4.17 4.63c.22.27.34.56.34.88 0 .38-.17.7-.51.95-.35.25-.76.4-1.23.43l-.49.03h-4.34a1 1 0 00-.11 0l-.11.02c-.42 0-.81-.16-1.18-.48a245.7 245.7 0 01-2.68-2.96c-.1-.12-.23-.23-.4-.33l-.3 1.16-.27 1.08-.09.42c-.19.6-.58.94-1.2 1.06l-.4.03h-2.8c-1.57 0-3.15-.64-4.72-1.92a19.62 19.62 0 01-4.23-4.94A46.13 46.13 0 01.23 6.22a1.8 1.8 0 01-.14-.73zM17.24 12c-.4 0-.76-.1-1.09-.29-.32-.19-.48-.45-.48-.79V5.14c0-.34-.1-.58-.29-.72-.19-.14-.52-.21-1-.21l-1.62.05c-.82 0-1.44.12-1.86.37.84.36 1.26.93 1.26 1.71v4.43c-.04.42-.23.77-.57 1.04-.35.28-.73.42-1.15.42-.57 0-1-.24-1.3-.73a25.68 25.68 0 01-3.32-5.63l-.26-.66-3.8-.02c-.24 0-.38.01-.4.04-.04.02-.05.1-.05.21 0 .15.02.31.06.48l.6 1.4c1.6 3.64 3.33 6.51 5.2 8.6 1.88 2.1 3.72 3.15 5.53 3.15h2.85c.12 0 .2-.03.26-.09s.1-.17.14-.34l.06-.25.54-2.21c.15-.3.29-.5.4-.6.21-.19.46-.28.74-.28.46 0 .93.24 1.4.73l2.43 2.71c.15.22.31.33.48.33h4.72c.57 0 .85-.13.85-.38a.44.44 0 00-.08-.25l-4.14-4.55a1.65 1.65 0 01-.49-1.13c0-.4.15-.79.46-1.16.25-.33.73-.9 1.44-1.67.71-.78 1.34-1.51 1.87-2.19.53-.68.88-1.3 1.06-1.85l.08-.32a.35.35 0 01-.03-.17c0-.07 0-.14-.03-.19h-4.48c-.28.1-.51.25-.68.46l-.17.47c-.48 1.16-1.73 2.95-3.74 5.36-.4.34-.87.5-1.4.5z"/>
  </symbol>
  <symbol id="instagram-icon" viewBox="0 0 23 23" xmlns="http://www.w3.org/2000/svg">
    <path d="M11.48.09c1.91 0 3.48.02 4.7.07 1.03.04 1.95.22 2.75.54a5.73 5.73 0 013.33 3.32c.31.8.5 1.73.54 2.76.04 1.22.07 2.78.07 4.7 0 1.91-.03 3.48-.07 4.7a8.63 8.63 0 01-.54 2.75 5.73 5.73 0 01-3.33 3.33c-.8.31-1.72.5-2.76.54-1.21.04-2.78.07-4.7.07-1.9 0-3.47-.03-4.69-.07a8.63 8.63 0 01-2.76-.54A5.73 5.73 0 01.7 18.93c-.32-.8-.5-1.72-.54-2.76-.05-1.21-.07-2.78-.07-4.7 0-1.9.02-3.47.07-4.69C.2 5.75.38 4.83.7 4.02A5.73 5.73 0 014.02.7C4.82.38 5.75.2 6.78.16 8 .1 9.56.09 11.48.09zm0 1.48c-2 0-3.62.02-4.88.07-.8.03-1.55.17-2.24.43a4.1 4.1 0 00-2.3 2.29c-.25.69-.39 1.43-.42 2.24-.05 1.26-.07 2.89-.07 4.88 0 1.99.02 3.61.07 4.87.03.81.17 1.56.43 2.25a4.1 4.1 0 002.29 2.29c.69.25 1.43.4 2.24.43 1.26.04 2.89.06 4.88.06 1.99 0 3.61-.02 4.87-.06.81-.03 1.56-.18 2.25-.43a4.1 4.1 0 002.29-2.3c.25-.68.4-1.43.43-2.24.04-1.26.06-2.88.06-4.87 0-2-.02-3.62-.06-4.88a7.21 7.21 0 00-.43-2.24 4.1 4.1 0 00-2.3-2.3 7.21 7.21 0 00-2.24-.42c-1.26-.05-2.88-.07-4.87-.07zm0 14.47a4.4 4.4 0 003.22-1.34 4.4 4.4 0 001.34-3.22 4.4 4.4 0 00-1.34-3.23 4.4 4.4 0 00-3.22-1.33 4.4 4.4 0 00-3.23 1.33 4.4 4.4 0 00-1.33 3.23 4.4 4.4 0 001.33 3.22 4.4 4.4 0 003.23 1.34zm0-10.4c1.61 0 3 .57 4.13 1.7a5.63 5.63 0 011.7 4.14c0 1.61-.56 3-1.7 4.13a5.63 5.63 0 01-4.13 1.7c-1.62 0-3-.56-4.14-1.7a5.63 5.63 0 01-1.7-4.13c0-1.62.57-3 1.7-4.14a5.63 5.63 0 014.14-1.7zm7.45-.23a1.36 1.36 0 01-1.4 1.35c-.36 0-.68-.13-.94-.4a1.3 1.3 0 01-.4-.95 1.36 1.36 0 011.35-1.39c.38 0 .7.14.98.42.28.27.41.6.41.97z"/>
  </symbol>
  <symbol id="facebook-icon" viewBox="0 0 28 33" xmlns="http://www.w3.org/2000/svg">
    <path fill-rule="evenodd" clip-rule="evenodd" d="M12.96 4.36A6.02 6.02 0 0117.5 2.2H21c.3 0 .55.25.55.55v5.4c0 .3-.25.54-.55.54h-3.5a.54.54 0 00-.4.2.91.91 0 00-.22.6V13H21a.55.55 0 01.54.66l-1.17 5.4a.55.55 0 01-.54.43h-2.95V29.7c0 .3-.24.55-.55.55h-4.66a.55.55 0 01-.55-.55V19.48H8.17a.55.55 0 01-.55-.55v-5.4c0-.3.24-.54.55-.54h2.95v-3.5c0-1.9.65-3.75 1.84-5.13zM17.5 3.3c-1.37 0-2.71.63-3.7 1.78a6.76 6.76 0 00-1.58 4.41v4.05c0 .3-.25.55-.55.55H8.72v4.29h2.95c.3 0 .55.25.55.55v10.23h3.56V18.93c0-.3.25-.55.55-.55h3.06l.93-4.3h-3.99a.55.55 0 01-.55-.54V9.49c0-.48.17-.95.48-1.31.31-.36.76-.59 1.24-.59h2.95V3.3H17.5z"/>
  </symbol>
</svg>
